<svg width="970" height="1105" viewBox="0 0 970 1105" fill="none" xmlns="http://www.w3.org/2000/svg">
<path opacity="0.06" d="M339.184 12.6649L499.647 105.308C522.791 118.726 539.675 140.77 546.599 166.611C553.523 192.452 549.923 219.984 536.588 243.177C519.1 273.473 497.558 301.242 472.561 325.714C435.757 362.014 408.176 406.597 392.123 455.735C376.069 504.873 372.01 557.14 380.284 608.167L381.251 611.989L386.405 610.684C485.907 575.33 560.39 494.698 585.944 394.439C594.814 359.615 608.42 326.173 626.383 295.049C639.797 271.897 661.841 255.007 687.686 248.078C713.531 241.15 741.068 244.748 764.264 258.085L922.931 349.692C944.368 362.068 960.01 382.453 966.416 406.363C972.823 430.272 969.469 455.747 957.093 477.184L623.864 1054.35C610.446 1077.5 588.402 1094.38 562.561 1101.3C536.72 1108.23 509.188 1104.63 485.996 1091.29L444.1 1067.11C404.448 1044.31 375.264 1006.94 362.765 962.94L362.338 961.346L306.101 738.367L72.5626 798.115C29.1567 808.12 -16.4288 801.274 -54.9813 778.961L-84.5953 761.863C-107.74 748.446 -124.623 726.402 -131.547 700.561C-138.471 674.72 -134.872 647.188 -121.537 623.995L211.692 46.8261C224.068 25.3896 244.453 9.74765 268.363 3.34116C292.272 -3.06534 317.747 0.288452 339.184 12.6649ZM445.372 193.716L296.314 107.657L-30.3427 673.443L-3.13105 689.154C12.5693 698.24 31.108 701.102 48.8174 697.173L280.641 637.751L278.534 629.32L278.173 627.196C266.784 559.391 271.907 489.839 293.107 424.435C314.308 359.03 350.962 299.699 399.964 251.469C417.571 234.296 432.838 214.878 445.372 193.716ZM862.1 434.314L714.839 349.292C702.259 371.55 692.689 395.379 686.38 420.155C652.032 554.882 551.855 663.009 418.437 709.405L416.373 710.129L406.57 712.642L462.664 935.09C467.925 952.913 479.845 968.028 495.951 977.299L535.443 1000.1L862.1 434.314Z" fill="url(#paint0_linear_1_192)"/>
<defs>
<linearGradient id="paint0_linear_1_192" x1="564.087" y1="1100.91" x2="272.577" y2="12.9759" gradientUnits="userSpaceOnUse">
<stop stop-color="#D32053"/>
<stop offset="1" stop-color="#460BC6"/>
</linearGradient>
</defs>
</svg>
